<?xml version="1.0" encoding="UTF-8"?>
<svg version="1.1" xmlns="http://www.w3.org/2000/svg" width="1280" height="714">
<path d="M0 0 C25.4634838 21.33723843 37.30994201 56.62214827 41.1015625 88.65625 C41.86575658 97.72774552 42.61410912 107.01556672 36.6015625 114.53125 C32.22214934 117.81580987 26.27380143 117.02620382 21.1015625 116.65625 C13.01934048 115.21041422 7.06696994 109.49312412 2.1875 103.1796875 C-3.98045581 93.9685112 -7.81488314 83.72049488 -11.55444336 73.35498047 C-17.38686543 57.19761622 -24.03242462 44.9300819 -39.8984375 36.65625 C-48.27021503 33.39267571 -60.53129022 32.8439943 -68.9609375 36.21875 C-76.78652487 40.47503321 -81.76482054 47.05492503 -84.48046875 55.45703125 C-87.25597485 70.06086243 -82.95034369 82.35801737 -75.10546875 94.5546875 C-71.73452219 99.29191152 -67.89135305 103.44464119 -63.8984375 107.65625 C-62.60414643 109.17485048 -61.31242254 110.69564319 -60.0234375 112.21875 C-56.28770138 116.43627748 -52.13175579 119.88215685 -47.72265625 123.375 C-43.97329453 126.40353007 -40.43761726 129.64094193 -36.89453125 132.90625 C-35.01393075 134.70406979 -35.01393075 134.70406979 -32.8984375 135.65625 C-32.8984375 136.31625 -32.8984375 136.97625 -32.8984375 137.65625 C-32.34285156 137.89214844 -31.78726563 138.12804687 -31.21484375 138.37109375 C-28.33468159 139.9690252 -26.23474674 141.961255 -23.8359375 144.21875 C-20.05604545 147.72144997 -16.23609816 151.05775783 -12.2109375 154.28125 C-3.65949403 161.21944243 3.32910655 168.98794473 10.1015625 177.65625 C10.5337207 178.2013623 10.96587891 178.74647461 11.41113281 179.30810547 C33.40697036 207.22711917 42.42545177 239.16310166 38.796875 274.63476562 C37.1823097 286.12618701 33.78161818 297.06130957 29.1015625 307.65625 C28.6686792 308.63754883 28.6686792 308.63754883 28.22705078 309.63867188 C18.4611972 331.29362033 3.05267694 349.5289542 -13.12890625 366.6953125 C-14.98060989 368.66004304 -16.79292078 370.65089537 -18.57421875 372.6796875 C-19.38246094 373.60007812 -20.19070313 374.52046875 -21.0234375 375.46875 C-21.72726562 376.27957031 -22.43109375 377.09039063 -23.15625 377.92578125 C-24.8984375 379.65625 -24.8984375 379.65625 -26.8984375 379.65625 C-27.2284375 380.64625 -27.5584375 381.63625 -27.8984375 382.65625 C-28.5584375 382.65625 -29.2184375 382.65625 -29.8984375 382.65625 C-29.8984375 383.31625 -29.8984375 383.97625 -29.8984375 384.65625 C-30.5584375 384.65625 -31.2184375 384.65625 -31.8984375 384.65625 C-31.8984375 385.31625 -31.8984375 385.97625 -31.8984375 386.65625 C-33.2265625 387.99609375 -33.2265625 387.99609375 -35.1484375 389.59375 C-37.69120695 391.73643335 -40.14815804 393.89784354 -42.5390625 396.2109375 C-62.68554658 415.64183608 -87.11748505 425.30476366 -115.046875 424.93359375 C-136.62875551 424.22175293 -159.7997928 416.39575398 -174.8984375 400.65625 C-181.45680967 392.56984473 -183.5907299 385.4096731 -182.5625 375.0078125 C-180.62869279 365.24777376 -174.52924122 357.67282669 -166.58203125 352.00390625 C-154.36210906 344.18239111 -141.57474851 342.74211162 -127.50390625 345.7109375 C-123.72080076 346.57034684 -119.95264795 347.48746505 -116.18359375 348.40625 C-95.59696839 353.3915836 -76.32569467 351.88262513 -57.8984375 340.65625 C-40.03570823 328.16432792 -30.02257233 309.75245375 -25.25390625 288.828125 C-22.74616345 266.45134312 -25.54232759 244.95609257 -39.4609375 226.65625 C-51.58265194 212.39679134 -68.61908487 193.4495094 -86.8984375 187.65625 C-88.89752649 187.59589103 -90.89968318 187.58567252 -92.8984375 187.65625 C-93.9941712 208.35344217 -87.5318216 229.27515909 -82.17578125 249.0625 C-78.14919478 264.08301169 -74.53218154 277.97507087 -81.8984375 292.65625 C-85.82371526 299.34376026 -93.63827376 302.68176504 -100.8984375 304.65625 C-115.72303636 306.4500857 -128.12661406 303.30527782 -140.04296875 294.1171875 C-145.6369169 289.29613779 -150.98476857 284.17143325 -155.8984375 278.65625 C-155.8984375 277.99625 -155.8984375 277.33625 -155.8984375 276.65625 C-156.5584375 276.65625 -157.2184375 276.65625 -157.8984375 276.65625 C-165.77080118 266.94640098 -171.94850772 255.64714666 -178.45458984 245.00927734 C-179.61966907 243.11055675 -180.79800754 241.21997589 -181.98046875 239.33203125 C-190.65074089 225.48604111 -198.67652927 211.2186404 -206.65234375 196.96484375 C-207.53660034 195.38678955 -207.53660034 195.38678955 -208.4387207 193.77685547 C-209.55523011 191.77979751 -210.66725308 189.78022282 -211.77416992 187.77783203 C-212.27408447 186.88306152 -212.77399902 185.98829102 -213.2890625 185.06640625 C-213.9392334 183.89283569 -213.9392334 183.89283569 -214.60253906 182.69555664 C-215.89947936 180.65461046 -216.98209968 179.13477834 -218.8984375 177.65625 C-220.2184375 177.65625 -221.5384375 177.65625 -222.8984375 177.65625 C-224.95941492 184.44438991 -225.20967122 190.71215769 -225.1484375 197.78125 C-225.14094482 198.93069092 -225.13345215 200.08013184 -225.12573242 201.2644043 C-224.77438576 229.6960041 -219.48605417 257.34020132 -212.59179688 284.85253906 C-211.5342298 289.12898285 -210.54858447 293.42007235 -209.5859375 297.71875 C-209.42665771 298.41444092 -209.26737793 299.11013184 -209.10327148 299.8269043 C-207.28800795 307.9770875 -206.71693294 315.77808005 -206.7109375 324.09375 C-206.69869141 324.98384766 -206.68644531 325.87394531 -206.67382812 326.79101562 C-206.65154429 336.95987087 -208.29816499 344.70629583 -214.8984375 352.65625 C-218.29850558 355.6089407 -221.39007999 356.28882919 -225.92578125 356.04296875 C-230.76125048 355.09502528 -232.99723931 351.89755923 -235.73046875 348.1328125 C-255.30197739 318.10000437 -265.09034662 279.6649335 -270.8984375 244.65625 C-271.15536377 243.16254883 -271.15536377 243.16254883 -271.41748047 241.63867188 C-283.01931978 173.81253436 -283.69071742 87.89604189 -242.72802734 28.97265625 C-237.64327635 22.11604372 -232.00843769 16.39625013 -224.8984375 11.65625 C-217.90186869 10.86631481 -217.90186869 10.86631481 -213.9609375 13.96875 C-210.9165474 17.93568255 -210.77953884 20.7697323 -210.7578125 25.6328125 C-210.26179326 64.59874028 -198.74267694 100.00104853 -180.99755859 134.49755859 C-179.78418095 136.88065169 -178.59915229 139.27657325 -177.41796875 141.67578125 C-173.34295184 149.94180228 -169.23159532 158.09696213 -164.4765625 165.99609375 C-162.86237097 168.71704532 -161.37659841 171.48441397 -159.8984375 174.28125 C-155.32013063 183.93289645 -155.32013063 183.93289645 -147.6875 190.4296875 C-147.09710937 190.50445312 -146.50671875 190.57921875 -145.8984375 190.65625 C-141.23462055 174.08988618 -145.48066555 153.15021803 -146.94487 136.20071411 C-149.68372679 104.40485777 -151.13177712 72.56608365 -141.8984375 41.65625 C-141.70378906 40.99657227 -141.50914062 40.33689453 -141.30859375 39.65722656 C-134.59475127 17.51312196 -119.61269361 -3.2933165 -99.28417969 -14.6640625 C-66.23368465 -32.16243372 -27.73091277 -22.38182389 0 0 Z " fill="#010101" transform="translate(757.8984375,156.34375)"/>
<path d="" fill="#000000" transform="translate(0,0)"/>
</svg>
